# xmcd
#
# Track frame offsets:
#   150
#   36146
#   36516
#   56845
#   92103
#   112779
#   127193
#   154963
#   182416
#
# Disc length: 2932 seconds
#
# Revision: 0
# Processed by: cddbd v1.4PL0 Copyright (c) Steve Scherf et al.
# Submitted via: uFREEDB 1.6.0
#
DISCID=780b7209
DTITLE=Various Artist - Blues Guitar, compilatie van Mario
DYEAR=2000
DGENRE=blues
TTITLE0=Eric Clapton/Double Trouble
TTITLE1=Mario/Naks
TTITLE2=Jump Dicky Jump/Why
TTITLE3=Walter Trout/Say Goodbye to the Blues
TTITLE4=Eelco Gelling/New Song 2002
TTITLE5=Bobby Mack/Pumpkin Pie
TTITLE6=Tinsley Ellis/A Quitter Never Wins
TTITLE7=Innes Sibun/Lonely Nights
TTITLE8=Eddie Vaan Shaw/Sky is Crying (W'dorp Blues Night)
EXTD=
EXTT0=
EXTT1=
EXTT2=
EXTT3=
EXTT4=
EXTT5=
EXTT6=
EXTT7=
EXTT8=
PLAYORDER=
